# xmcd
#
# Track frame offsets: 
#        150
#        11404
#        23701
#        35168
#        47884
#        58161
#        72038
#        84918
#        100865
#        113283
#        127126
#
# Disc length: 1839 seconds
#
# Revision: 3
# Processed by: cddbd v1.5.1PL2 Copyright (c) Steve Scherf et al.
# Submitted via: ExactAudioCopy v0.95b4
#
DISCID=88072d0b
DTITLE=Don Williams - Where Do We Go From Here
DYEAR=2002
DGENRE=Country
TTITLE0=Spend Some More Time
TTITLE1=Follow Me To Louisville
TTITLE2=Storybook Children
TTITLE3=There's Never Been A Time
TTITLE4=Take My Hand For A While
TTITLE5=Ruby Tuesday
TTITLE6=Coming Apart
TTITLE7=Tears
TTITLE8=She Walked Out On Her Way To Be A Woman
TTITLE9=Where Do We Go From Here
TTITLE10=Always Something There To Remind Me
EXTD=1998 CD Prestige Records (UK) CDSGP 0396\nEAN: 5032427039627\n\nS
EXTD=ame Songs as the 1985 Golden Circle Inc., Stemford, CT 06902 (GC4
EXTD=7518]\n
EXTT0=
EXTT1=
EXTT2=
EXTT3=
EXTT4=
EXTT5=
EXTT6=
EXTT7=
EXTT8=
EXTT9=
EXTT10=
PLAYORDER=
